# Blender 3.6.4
# www.blender.org
o Cube
v 1.414214 1.000000 -0.000000
v 1.414214 -1.000000 0.000000
v 0.000000 1.000000 1.414214
v 0.000000 -1.000000 1.414214
v 0.000000 1.000000 -1.414214
v 0.000000 -1.000000 -1.414214
v -1.414214 1.000000 -0.000000
v -1.414214 -1.000000 0.000000
v 3.535534 1.000000 -2.121321
v 3.535534 -1.000000 -2.121321
v 2.121320 1.000000 -3.535534
v 2.121320 -1.000000 -3.535534
v 3.535534 1.000000 2.121320
v 3.535534 -1.000000 2.121320
v 2.121321 1.000000 3.535534
v 2.121321 -1.000000 3.535534
v -2.121320 1.000000 3.535534
v -2.121320 -1.000000 3.535534
v -3.535534 1.000000 2.121321
v -3.535534 -1.000000 2.121321
v -2.121321 1.000000 -3.535534
v -2.121321 -1.000000 -3.535534
v -3.535534 1.000000 -2.121320
v -3.535534 -1.000000 -2.121320
vn -0.0000 0.9045 -0.4264
vn -0.0000 0.9045 0.4264
vn 0.4264 0.9045 -0.0000
vn -0.4264 -0.9045 -0.0000
vn -0.8165 0.5774 -0.0000
vn -0.4264 0.9045 -0.0000
vn -0.0000 -0.9045 -0.4264
vn -0.0000 0.5774 -0.8165
vn 0.4264 -0.9045 -0.0000
vn 0.8165 0.5774 -0.0000
vn -0.0000 -0.5774 -0.8165
vn 0.8165 -0.5774 -0.0000
vn -0.0000 -0.5774 0.8165
vn -0.0000 -0.9045 0.4264
vn -0.0000 0.5774 0.8165
vn -0.8165 -0.5774 -0.0000
s 1
f 5//1 3//2 1//3
f 8//4 19//5 7//6
f 6//7 21//8 5//1
f 2//9 8//4 6//7
f 3//2 13//10 1//3
f 5//1 12//11 6//7
f 11//8 10//12 12//11
f 6//7 10//12 2//9
f 1//3 11//8 5//1
f 2//9 9//10 1//3
f 13//10 16//13 14//12
f 4//14 15//15 3//2
f 1//3 14//12 2//9
f 2//9 16//13 4//14
f 17//15 20//16 18//13
f 4//14 20//16 8//4
f 7//6 17//15 3//2
f 3//2 18//13 4//14
f 23//5 22//11 24//16
f 7//6 24//16 8//4
f 8//4 22//11 6//7
f 5//1 23//5 7//6
f 5//1 7//6 3//2
f 8//4 20//16 19//5
f 6//7 22//11 21//8
f 2//9 4//14 8//4
f 3//2 15//15 13//10
f 5//1 11//8 12//11
f 11//8 9//10 10//12
f 6//7 12//11 10//12
f 1//3 9//10 11//8
f 2//9 10//12 9//10
f 13//10 15//15 16//13
f 4//14 16//13 15//15
f 1//3 13//10 14//12
f 2//9 14//12 16//13
f 17//15 19//5 20//16
f 4//14 18//13 20//16
f 7//6 19//5 17//15
f 3//2 17//15 18//13
f 23//5 21//8 22//11
f 7//6 23//5 24//16
f 8//4 24//16 22//11
f 5//1 21//8 23//5
